<?xml version="1.0" standalone="no"?>
<!DOCTYPE svg PUBLIC "-//W3C//DTD SVG 20010904//EN"
 "http://www.w3.org/TR/2001/REC-SVG-20010904/DTD/svg10.dtd">
<svg version="1.0" xmlns="http://www.w3.org/2000/svg"
 width="512.000000pt" height="512.000000pt" viewBox="0 0 512.000000 512.000000"
 preserveAspectRatio="xMidYMid meet">

<g transform="translate(0.000000,512.000000) scale(0.100000,-0.100000)"
fill="#000000" stroke="none">
<path d="M920 5110 c-380 -38 -721 -302 -850 -658 -70 -192 -65 -59 -65 -1892
0 -1842 -5 -1705 68 -1899 102 -270 327 -494 595 -591 192 -70 59 -65 1892
-65 1833 0 1700 -5 1892 65 268 97 493 321 595 591 73 194 68 57 68 1899 0
1833 5 1700 -65 1892 -97 268 -321 493 -591 595 -192 72 -47 66 -1844 69 -891
1 -1654 -2 -1695 -6z m-261 -1992 c5 -18 53 -195 106 -393 53 -198 100 -363
103 -367 4 -4 61 173 126 393 l119 400 110 -3 111 -3 117 -393 c64 -216 119
-395 121 -398 3 -2 44 141 91 319 48 177 97 357 108 400 l21 78 112 -3 c67 -2
110 -7 110 -13 -1 -5 -75 -270 -165 -587 l-163 -578 -111 0 -112 0 -82 278
c-46 152 -99 332 -119 399 -20 68 -39 119 -43 115 -4 -4 -55 -169 -114 -367
-58 -198 -111 -375 -116 -392 l-11 -33 -113 0 c-100 0 -114 2 -119 18 -41 136
-326 1144 -326 1152 0 6 43 10 114 10 l114 0 11 -32z m1871 -198 c65 -12 151
-51 193 -86 49 -41 103 -118 126 -178 24 -64 45 -207 36 -247 l-7 -29 -358 0
-359 0 11 -31 c6 -17 25 -51 42 -77 91 -136 322 -138 422 -5 18 23 34 47 36
54 2 7 37 -9 90 -42 l86 -53 -15 -30 c-23 -44 -119 -142 -168 -171 -60 -35
-146 -55 -235 -55 -140 1 -242 41 -331 130 -151 150 -181 378 -78 582 39 77
126 170 187 200 93 44 213 59 322 38z m1049 -31 c29 -10 75 -34 102 -54 l49
-35 0 55 0 55 110 0 110 0 0 -470 0 -470 -110 0 -110 0 0 61 0 61 -39 -31
c-149 -118 -363 -122 -531 -9 -192 128 -256 399 -145 618 99 196 348 293 564
219z m721 -35 l0 -55 34 35 c49 52 107 76 192 76 77 0 174 -24 173 -43 0 -23
-78 -202 -86 -200 -4 1 -28 10 -53 19 -80 29 -177 4 -222 -57 -33 -43 -38 -94
-38 -381 l0 -278 -115 0 -115 0 0 470 0 470 115 0 115 0 0 -56z"/>
<path d="M2359 2731 c-58 -12 -112 -45 -146 -90 -57 -73 -63 -71 212 -71 l245
0 -12 28 c-22 51 -57 89 -101 110 -50 23 -144 34 -198 23z"/>
<path d="M3354 2690 c-174 -69 -227 -283 -105 -422 102 -116 291 -125 404 -19
106 97 109 277 6 379 -76 77 -203 103 -305 62z"/>
</g>
</svg>
